<?xml version="1.0" standalone="no"?>
<!DOCTYPE svg PUBLIC "-//W3C//DTD SVG 1.1//EN" "http://www.w3.org/Graphics/SVG/1.1/DTD/svg11.dtd">
<svg xmlns="http://www.w3.org/2000/svg">
<metadata>Copyright (C) 2018 by original authors @ fontello.com</metadata>
<defs>
<font id="shicons" horiz-adv-x="1000" >
<font-face font-family="shicons" font-weight="400" font-stretch="normal" units-per-em="1000" ascent="850" descent="-150" />
<missing-glyph horiz-adv-x="1000" />
<glyph glyph-name="arrow-down" unicode="&#xe800;" d="M485 220l318 353c16 19 45 20 63 4 19-17 20-45 3-64l-353-392c-18-20-50-19-68 2l-319 392c-15 19-13 47 7 63 19 16 47 13 63-6l286-352z" horiz-adv-x="1000" />

<glyph glyph-name="arrow-left" unicode="&#xe801;" d="M373 363l353-319c19-16 20-45 3-63-16-18-44-20-63-3l-392 353c-20 18-20 51 2 68l392 319c19 16 47 13 63-6 16-20 13-48-7-63l-351-286z" horiz-adv-x="1000" />

<glyph glyph-name="arrow-right" unicode="&#xe802;" d="M627 332l-353 318c-18 17-20 45-3 63 16 19 45 20 63 4l392-353c21-19 20-51-2-69l-392-319c-19-15-47-12-63 7-15 19-13 47 7 63l351 286z" horiz-adv-x="1000" />

<glyph glyph-name="arrow-up" unicode="&#xe803;" d="M515 474l-318-353c-16-18-45-20-63-3-18 16-20 45-3 63l353 392c18 21 50 20 68-1l319-393c16-19 13-47-7-63-19-15-47-12-63 7l-286 351z" horiz-adv-x="1000" />

<glyph glyph-name="attention" unicode="&#xe804;" d="M500-31c-210 0-381 171-381 381 0 210 171 381 381 381 210 0 381-171 381-381 0-210-171-381-381-381z m-40 619c-3 0-5 0-7 0-26-4-44-28-40-54l34-238c3-24 23-41 47-41l12 0c24 0 44 17 48 41l34 238c0 2 0 4 0 7 0 26-21 47-48 47l-80 0z m16-381c-13 0-24-10-24-24l0-47c0-13 11-24 24-24l48 0c13 0 24 11 24 24l0 47c0 14-11 24-24 24l-48 0z" horiz-adv-x="1000" />

<glyph glyph-name="calendar" unicode="&#xe805;" d="M852 672l-118 0 0 30c0 16-13 29-29 29-16 0-29-13-29-29l0-30-352 0 0 30c0 16-13 29-29 29-16 0-29-13-29-29l0-30-118 0c-16 0-29-13-29-29l0-645c0-16 13-29 29-29l704 0c16 0 29 13 29 29l0 645c0 16-13 29-29 29z m-586-58l0-30c0-16 13-29 29-29 16 0 29 13 29 29l0 30 352 0 0-30c0-16 13-29 29-29 16 0 29 13 29 29l0 30 88 0 0-117-644 0 0 117 88 0z m-88-586l0 410 644 0 0-410-644 0z m417 312l-130-156-66 44c-13 9-32 5-41-8-9-14-5-32 9-41l87-58c5-4 11-5 17-5 8 0 17 3 22 10l147 176c10 12 8 31-4 41-12 11-31 9-41-3z" horiz-adv-x="1000" />

<glyph glyph-name="camera" unicode="&#xe806;" d="M821 540c18 0 32-5 43-17 11-11 17-26 17-45l0-350c0-19-6-34-17-47-11-12-25-19-43-19l-634 0c-19 0-35 7-48 20-13 13-20 29-20 46l0 350c0 18 7 32 20 44 13 12 29 18 48 18l25 0 0 32 68 0 0-32 26 0c34 40 58 66 72 78 14 12 26 18 37 18l174 0c11 0 23-6 37-18 14-12 38-38 72-78l123 0z m28-412l0 350c0 20-9 30-28 30l-136 0-10 6c-4 6-11 13-20 22-8 9-18 21-29 34-11 13-19 22-23 26l-14 8-174 0c-3 0-8-3-14-8-9-8-26-26-50-54-12-16-19-25-22-28l-10-6-132 0c-10 0-18-3-25-9-8-6-11-13-11-21l0-350c0-9 3-17 11-24 7-7 15-10 25-10l634 0c19 0 28 11 28 34z m-470 303c34 33 75 49 121 49 46 0 86-16 120-49 34-34 51-73 51-120 0-46-17-86-51-119-34-34-74-50-120-50-46 0-86 16-120 50-34 33-51 73-51 119 0 47 17 86 50 120z m22-217c28-27 61-40 99-40 38 0 71 13 98 41 27 27 41 59 41 96 0 37-14 70-41 97-27 27-60 41-98 41-38 0-71-14-98-41-27-27-41-60-41-97 0-37 13-70 40-97z" horiz-adv-x="1000" />

<glyph glyph-name="clock" unicode="&#xe807;" d="M769 619c-74 75-164 112-269 112-105 0-195-37-269-112-75-74-112-164-112-269 0-105 37-195 112-269 74-75 164-112 269-112 105 0 195 37 269 112 75 74 112 164 112 269 0 105-37 195-112 269z m-22-516c-68-69-150-103-247-103-96 0-179 34-247 103-69 68-103 151-103 247 0 97 34 179 103 247 68 69 151 103 247 103 97 0 179-34 247-103 69-68 103-150 103-247 0-96-34-179-103-247z m-247 247l0 234-31 0 0-265 207 0 0 31-176 0z" horiz-adv-x="1000" />

<glyph glyph-name="close" unicode="&#xe808;" d="M500-31c-107 0-197 37-271 110-73 74-110 164-110 271 0 107 37 197 110 271 74 73 164 110 271 110 107 0 197-37 271-110 73-74 110-164 110-271 0-107-37-197-110-271-74-73-164-110-271-110z m0 51c93 0 171 32 235 95 63 64 95 142 95 235 0 93-32 171-95 235-64 63-142 95-235 95-93 0-171-32-235-95-63-64-95-142-95-235 0-93 32-171 95-235 64-63 142-95 235-95z m144 226c11-11 11-29 0-40-11-11-29-11-40 0l-104 104-104-104c-11-11-29-11-40 0-11 11-11 29 0 40l104 104-104 104c-11 11-11 29 0 40 11 11 29 11 40 0l104-104 104 104c11 11 29 11 40 0 11-11 11-29 0-40l-104-104 104-104z" horiz-adv-x="1000" />

<glyph glyph-name="comment" unicode="&#xe809;" d="M752 125l0 6c0 14 3 28 10 43 2 8 7 15 13 21 33 51 49 107 49 168 0 89-31 163-96 226-64 63-140 94-231 94-91 0-168-31-232-94-65-63-96-137-96-226 0-88 31-162 96-225 64-63 141-93 232-93 45 0 86 7 123 22 1 0 2 1 3 1 6 3 10 5 15 5 12 3 20 5 28 5 15 0 28-2 40-8l66-24-20 79z m-117-54c3 1 5 1 8 1l-8 0 0-1z m-38-43c0-1 0-2 0-3 0 1 0 2 0 3l0 0z m100 364c7-7 11-16 11-26 0-11-4-21-11-28-8-7-16-10-26-10-11 0-19 3-27 10-7 8-11 17-11 28 0 10 4 19 11 26 7 8 16 11 27 11 10 0 19-3 26-11z m-175 0c7-7 11-16 11-26 0-11-4-20-12-28-7-7-16-10-26-10-10 0-19 3-26 10-8 7-12 16-12 28 0 10 4 19 11 26 7 8 16 11 27 11 11 0 20-3 27-11z m-176 0c8-7 11-16 11-26 0-11-4-20-11-28-7-7-16-10-26-10-10 0-19 3-27 10-7 8-11 17-11 28 0 10 4 19 11 26 7 8 16 11 27 11 10 0 19-3 26-11z m342-366c-5 3-12 4-22 4-3 0-10-1-20-4-1-1-2-2-3-2-45-18-94-27-146-27-104 0-192 36-266 107-73 71-110 158-110 259 0 101 37 188 110 260 74 72 162 108 266 108 103 0 191-36 265-108 73-72 110-159 110-260 0-72-20-138-60-198l-3-3c-2-2-2-3-2-4-5-10-7-19-7-27l39-162-147 56c0 0-1 0-4 1z" horiz-adv-x="1000" />

<glyph glyph-name="download" unicode="&#xe80a;" d="M476 201l-175 182c-5 6-9 14-9 23 0 9 3 17 9 23 12 12 32 12 44 0l119-124 0 392c0 17 15 32 32 32 17 0 31-15 31-32l0-392 118 126c12 12 33 12 44 0 6-7 9-14 9-23 0-10-3-17-9-24l-173-179-3-3c-1-2-4-3-7-4-1-1-4-2-6-2l0-1-6 0-1 0c-4 1-6 2-10 3-3 1-4 2-7 3z m365 104c18 0 31-15 32-33l0-129c0-95-74-172-166-172l-422 0c-92 0-166 77-166 172l0 129c0 18 14 33 31 33 18 0 32-15 32-33l0-129c0-59 46-107 103-107l421 0c57 0 103 48 103 107l0 129c0 18 15 33 32 33z" horiz-adv-x="1000" />

<glyph glyph-name="library" unicode="&#xe80b;" d="M683 731c58 0 105-14 142-41 37-27 56-65 56-116l0-561-44 0c-31 55-83 83-154 83-40 0-75-12-106-37-30-24-49-54-57-90l-40 0c-8 36-27 66-57 90-31 25-66 37-105 37-76 0-127-28-155-83l-44 0 0 561c0 51 19 89 56 116 37 27 84 41 143 41 93 0 154-29 182-87 24 58 85 87 183 87z m-199-688l0 533c-1 41-17 72-48 93-32 20-71 30-118 30-47 0-85-10-117-30-31-21-48-51-50-91l0-522 2 0c34 48 89 72 165 72 71 0 126-29 166-85z m365 13l0 538c-5 70-61 105-166 105-49 0-89-11-120-32-32-22-47-54-47-95l0-529c40 56 95 85 167 85 78 0 133-24 166-72z" horiz-adv-x="1000" />

<glyph glyph-name="like2" unicode="&#xe80c;" d="M881 488c0-63-21-116-62-160l-319-338-319 338c-41 44-62 97-62 160 0 63 21 116 62 159 37 40 82 60 135 60 53 0 98-20 135-60l49-52 51 52c37 40 82 60 134 60 53 0 97-20 134-60 41-43 62-96 62-159z" horiz-adv-x="1000" />

<glyph glyph-name="lock" unicode="&#xe80d;" d="M686 409l100 0 0-440-572 0 0 440 100 0 0 132c0 52 18 97 55 134 36 37 80 56 131 56 51 0 95-19 131-56 37-37 55-82 55-134l0-132z m-172-233c29 9 43 28 43 57 0 17-5 31-16 42-11 11-24 16-41 16-17 0-30-5-41-16-11-11-16-25-16-42 0-29 14-48 43-57l0-60 28 0 0 60z m130 233l0 132c0 45-12 75-43 107-30 31-57 44-101 44-44 0-73-13-103-44-30-32-39-62-39-107l0-132 286 0z m-173-176c0 19 10 29 29 29 19 0 29-10 29-29 0-20-10-29-29-29-19 0-29 9-29 29z" horiz-adv-x="1000" />

<glyph glyph-name="pencil" unicode="&#xe80e;" d="M249 301l114-74 272 272c-21 21-79 71-108 71-5 0-9-1-13-5l-265-264z m-102-228c37-10 66-39 76-77l170 45-56 146-146 56-44-170z m407 532c4 4 9 6 13 6 50 0 194-144 194-194 0-4-2-9-6-13l121 121c3 3 5 8 5 13 0 50-143 193-193 193-5 0-10-2-13-5l-121-121z m-435-636l79 21c-7 29-29 51-58 58l-21-79z m261 237l71-107 264 265c4 4 4 8 4 13 0 28-45 82-65 103l-274-274z" horiz-adv-x="1000" />

<glyph glyph-name="search" unicode="&#xe80f;" d="M675 267l-8-14 214-216-67-68-215 216-14-10c-53-33-107-49-164-49-84 0-155 30-214 89-58 60-88 131-88 214 0 84 30 155 88 214 59 59 130 88 214 88 83 0 154-29 213-88 59-59 88-130 88-214 0-58-16-112-47-162z m-86 331c-46 46-102 70-168 70-66 0-123-24-169-70-46-46-69-102-69-169 0-66 23-122 69-168 46-47 103-70 169-70 66 0 122 23 168 70 48 47 72 104 72 168 0 65-24 121-72 169z" horiz-adv-x="1000" />

<glyph glyph-name="send" unicode="&#xe810;" d="M869 721c-10 10-25 13-40 8l-686-276c-14-5-24-20-24-35 0-16 11-30 25-34l290-100 100-290c5-14 17-23 32-25l2 0c15 0 30 10 35 24l275 688c6 14 2 29-9 40z m-290-344c7 7 11 16 11 26 0 10-4 19-11 26-14 14-38 14-52 0l-73-73-190 65 514 207-207-514-65 191 73 72z" horiz-adv-x="1000" />

<glyph glyph-name="submit2" unicode="&#xe811;" d="M500-31c-107 0-197 37-271 110-73 74-110 164-110 271 0 107 37 197 110 271 74 73 164 110 271 110 107 0 197-37 271-110 73-74 110-164 110-271 0-107-37-197-110-271-74-73-164-110-271-110z m0 51c93 0 171 32 235 95 63 64 95 142 95 235 0 93-32 171-95 235-64 63-142 95-235 95-93 0-171-32-235-95-63-64-95-142-95-235 0-93 32-171 95-235 64-63 142-95 235-95z m114 422c12 11 31 10 41-2 11-13 10-31-2-42l-173-150c-6-6-15-9-24-7-5 1-10 3-15 7l-78 72c-11 11-12 29-1 41 11 12 29 13 41 2l59-54 152 133z" horiz-adv-x="1000" />

<glyph glyph-name="trash" unicode="&#xe812;" d="M759 551l5 0-17-503c-1-41-35-74-77-74l-330 0c-41 0-75 33-77 74l-18 503 6 0c-18 1-32 16-32 35 0 19 16 35 35 35l502 0c19 0 35-16 35-35 0-19-14-34-32-35z m-458 0c9-327 14-495 14-503 1-12 13-20 13-20 0 0 180-9 353 0 13 1 18 6 19 20 9 165 14 332 14 503l-413 0z m179-91c0 14 11 25 25 25 14 0 25-11 25-25l0-341c0-13-11-25-25-25-14 0-25 12-25 25l0 341z m-115 0c-1 13 10 25 24 25 14 1 25-10 26-24l10-341c0-14-11-25-24-26-14 0-26 11-26 25l-10 341z m230 1c1 14 12 25 26 24 14 0 25-12 24-25l-10-341c0-14-12-25-25-25-14 1-25 12-25 26l10 341z m164 90l-45 0 42 0c1 0 2 0 3 0z m-508 0c1 0 2 0 3 0l47 0-50 0z m191 70l-71 0 10 39c9 38 46 66 84 66l80 0c38 0 75-28 84-66l11-39-72 0-7 22c-2 6-10 13-16 13l-80 0c-6 0-14-7-16-13l-7-22z" horiz-adv-x="1000" />

<glyph glyph-name="add" unicode="&#xe813;" d="M571 421l239 0c39 0 71-32 71-71 0-39-32-71-71-71l-239 0 0-238c0-40-32-72-71-72-39 0-71 32-71 72l0 238-238 0c-40 0-72 32-72 71 0 39 32 71 72 71l238 0 0 239c0 39 32 71 71 71 39 0 71-32 71-71l0-239z" horiz-adv-x="1000" />

<glyph glyph-name="assortments" unicode="&#xe814;" d="M499 229c-6 0-11 2-17 5l-465 269c-10 6-17 17-17 29 0 12 6 24 16 30l468 283c11 7 24 7 34 0l466-279c10-6 16-17 16-29 0-13-6-24-17-30l-467-273c-6-3-11-5-17-5z m-399 304l399-231 401 235-399 239-401-243z m399-493c-6 0-11 1-17 4l-465 269c-16 10-22 30-13 47 10 16 30 22 46 13l449-260 451 264c16 9 36 3 46-13 9-16 3-37-13-46l-467-274c-6-3-11-4-17-4z m0-190c-6 0-11 1-17 4l-465 270c-16 9-22 30-13 46 10 17 30 22 46 13l449-260 451 264c16 9 36 4 46-13 9-16 3-37-13-46l-467-274c-6-3-11-4-17-4z" horiz-adv-x="1000" />

<glyph glyph-name="close-1" unicode="&#xe815;" d="M860 91l-259 259 259 259c28 28 28 73 0 101-28 28-73 28-101 0l-259-259-259 259c-28 28-73 28-101 0-28-28-28-73 0-101l259-259-259-259c-28-28-28-73 0-101 28-28 73-28 101 0l259 259 259-259c28-28 73-28 101 0 28 28 28 73 0 101z" horiz-adv-x="1000" />

<glyph glyph-name="countries" unicode="&#xe816;" d="M619 584l116 224c5 9 4 19-1 28-5 9-15 14-25 14l-680 0c-16 0-29-13-29-29l0-942c0-16 13-29 29-29 16 0 29 13 29 29l0 415 462 0c16 0 16 57 0 57l-462 0 0 441 604 0-101-194c-4-8-4-17 0-25l103-221-299 0c-16 0-16-58 0-58l344 0c10 0 19 5 25 13 5 8 6 19 2 28l-117 249z" horiz-adv-x="750" />

<glyph glyph-name="divisions" unicode="&#xe817;" d="M1419 446c68 66 90 167 56 256-34 90-118 148-212 148-94 0-178-58-212-148-35-89-12-190 56-256-35-19-67-43-93-73 37 98 7 209-74 273-82 63-195 63-276 0-82-64-112-175-74-273-27 30-58 54-93 73 68 66 90 167 56 256-35 90-119 148-213 148-93 0-177-58-212-148-34-89-12-190 56-256-112-60-184-178-184-308l0-78c0-29 23-52 51-52 28 0 50 23 50 52l0 78c1 116 83 216 195 238 112 21 223-42 265-150-64-65-100-154-100-246l0-78c0-29 23-52 51-52 28 0 51 23 51 52l0 78c-8 92 36 180 112 229 77 48 173 48 250 0 76-49 120-137 112-229l0-78c0-29 23-52 51-52 28 0 51 23 51 52l0 78c0 92-36 181-100 246 42 108 153 171 265 150 112-22 194-122 195-238l0-78c0-29 22-52 50-52 28 0 51 23 51 52l0 78c0 129-69 247-181 308z m-1206 168c0 72 57 130 127 130 70 0 126-58 126-130 0-72-56-130-126-130-34 0-66 14-90 38-24 24-37 57-37 92z m588-28c70 0 127-58 127-130 0-71-57-130-127-130-70 0-127 59-127 130 0 72 57 130 127 130z m334 28c0 72 57 130 127 130 70 0 127-58 127-130 0-72-57-130-127-130-70 0-127 58-127 130z" horiz-adv-x="1600" />

<glyph glyph-name="minus" unicode="&#xe818;" d="M119 350l0 0c0 39 32 71 72 71l619 0c39 0 71-32 71-71l0 0c0-39-32-71-71-71l-619 0c-40 0-72 32-72 71z" horiz-adv-x="1000" />

<glyph glyph-name="more" unicode="&#xe819;" d="M226 636c0 19 16 35 36 35l55 0c14 35 48 60 88 60 39 0 74-25 88-60l245 0c20 0 36-16 36-35 0-20-16-36-36-36l-245 0c-14-35-49-59-88-59-40 0-74 24-88 59l-55 0c-20 0-36 16-36 36z m0-286c0 20 16 36 36 36l245 0c14 34 49 59 88 59 40 0 74-25 88-59l55 0c20 0 36-16 36-36 0-20-16-36-36-36l-55 0c-14-34-48-59-88-59-39 0-74 25-88 59l-245 0c-20 0-36 16-36 36z m0-286c0 20 16 36 36 36l114 0c14 35 49 60 88 60 40 0 74-25 89-60l185 0c20 0 36-16 36-36 0-19-16-35-36-35l-185 0c-15-35-49-60-89-60-39 0-74 25-88 60l-114 0c-20 0-36 16-36 35z m215 0c0-13 10-23 23-23 14 0 24 10 24 23 0 14-10 24-24 24-13 0-23-10-23-24z m-60 572c0-14 10-24 24-24 13 0 24 10 24 24 0 13-11 24-24 24-14 0-24-11-24-24z m190-286c0-14 11-24 24-24 14 0 24 10 24 24 0 14-10 24-24 24-13 0-24-10-24-24z" horiz-adv-x="1000" />

<glyph glyph-name="pencil-1" unicode="&#xe81a;" d="M872 579l-145 144c-12 11-32 11-43 0l-528-523c-5-4-8-10-9-17l-28-179c-1-10 2-20 10-27 5-5 13-8 20-8 2 0 4 0 7 1l173 36c6 1 11 4 15 8l528 522c12 12 12 31 0 43z m-564-517l-122-25 20 128 33 33 103-102-34-34z m424 421l-102 101 75 75 103-101-76-75z" horiz-adv-x="1000" />

<glyph glyph-name="seasons" unicode="&#xe81b;" d="M237 850c-17 0-31-14-31-31l0-109c-30-13-51-42-51-77 0-45 37-82 82-82 46 0 83 37 83 82 0 35-22 64-52 77l0 109c0 17-14 31-31 31z m392 0c-17 0-31-14-31-31l0-109c-30-13-51-42-51-77 0-45 37-82 82-82 46 0 83 37 83 82 0 35-22 64-52 77l0 109c0 17-14 31-31 31z m-515-62c-63 0-114-51-114-114l0-618c0-63 51-114 114-114l532 0c31-49 86-82 148-82 97 0 176 79 176 175 0 71-43 132-103 160l0 479c0 63-52 114-114 114l-41 0c-17 0-32-14-32-31 0-16 15-31 32-31l41 0c29 0 52-22 52-52l0-144-743 0 0 144c0 30 23 52 52 52l41 0c16 0 31 15 31 31 0 17-15 31-31 31l-41 0z m206 0c-17 0-31-14-31-31 0-17 14-31 31-31l227 0c17 0 31 14 31 31 0 17-14 31-31 31l-227 0z m-83-134c12 0 21-9 21-21 0-11-9-20-21-20-11 0-20 9-20 20 0 12 9 21 20 21z m392 0c12 0 21-9 21-21 0-11-9-20-21-20-11 0-20 9-20 20 0 12 9 21 20 21z m-567-186l743 0 0-258c-4 0-7 0-11 0-96 0-175-78-175-175 0-11 1-21 3-31l-508 0c-29 0-52 23-52 52l0 412z m732-319c63 0 114-51 114-114 0-63-51-113-114-113-63 0-113 50-113 113 0 63 50 114 113 114z m0-21c-17 0-31-14-31-31l0-62c0-17 14-31 31-31l52 0c17 0 31 14 31 31 0 17-14 31-31 31l-21 0 0 31c0 17-14 31-31 31z" horiz-adv-x="970" />

<glyph glyph-name="stores" unicode="&#xe81c;" d="M1100 606l0 9-114 190c-4 7-12 12-20 12l-776 0c-8-1-15-5-20-11l-132-187 0-2-2 0 0-5 0-4-3 0 0-57c0-47 31-90 77-104l0-564 914 0 0 564c45 14 76 55 76 102l0 57z m-218-57l0-18c0-49-40-88-89-88-48 0-88 39-88 88l0 75 0 5-47 156 139 0 85-169 0-49z m-630 0l0 49 103 170 123 0-47-156 0-5 0-76c0-49-40-89-90-89-49 0-89 40-89 89l0 18z m225 53l51 166 76 0 51-166 0-71c0-49-39-88-88-88-49 0-89 39-89 88l-1 71z m-395-53l0 48 121 171 96 0-91-149-1 0 0-4 0-4 0-57c0-33-27-60-61-60-33 0-60 27-60 60l-4-5z m610-617l-250 0 0 294 250 0 0-294z m48 0l0 342-347 0 0-342-235 0 0 510c23 3 43 13 60 29 21-44 64-73 113-77 49-3 96 20 123 60 26-37 68-59 113-59 45 0 87 22 112 59 28-40 75-63 124-60 48 4 91 33 113 77 16-16 37-26 59-29l0-510-235 0z m251 557c-34 0-61 27-61 60l0 57 0 5 0 4-80 153 101 0 101-170 0-49c0-33-28-60-61-60z" horiz-adv-x="1133" />

<glyph glyph-name="submit" unicode="&#xe81d;" d="M235 615c-73-73-110-162-110-265 0-103 37-192 110-265 73-73 162-110 265-110 103 0 192 37 265 110 73 73 110 162 110 265 0 103-37 192-110 265-73 73-162 110-265 110-103 0-192-37-265-110z m216-349l212 214 39-39-4-4-227-229c-6-6-12-9-20-9-7 0-14 3-19 9l-99 99 39 39 79-80z" horiz-adv-x="1000" />

<glyph glyph-name="user" unicode="&#xe81e;" d="M488 850c-141 0-256-118-256-262 0-145 115-263 256-263 141 0 256 118 256 263 0 144-115 262-256 262z m0-75c101 0 183-83 183-187 0-104-82-188-183-188-102 0-183 84-183 188 0 104 81 187 183 187z m12-375c-276 0-500-229-500-513l0-37 73 0 0 37c0 244 190 438 427 438 237 0 427-194 427-438l0-37 73 0 0 37c0 284-224 513-500 513l0 0z" horiz-adv-x="1000" />

<glyph glyph-name="logout" unicode="&#xe81f;" d="M420 198l108 110-409 0 0 84 411 0-110 110 59 60 212-212-212-212-59 60z m400 533c47 0 85-38 85-85l0-592c0-47-38-85-85-85l-592 0c-47 0-85 38-85 85l0 169 85 0 0-169 592 0 0 592-592 0 0-169-85 0 0 169c0 47 38 85 85 85l592 0z" horiz-adv-x="1000" />

<glyph glyph-name="like" unicode="&#xe820;" d="M784 361c33 35 49 76 49 127 0 51-16 92-49 127-28 30-60 45-99 45-39 0-71-15-100-46l-86-87-34 35-49 53c-28 30-60 45-100 45-40 0-72-15-100-45-33-35-49-76-49-127 0-51 16-92 49-127l284-301 284 301z m-317 269l33-35 32 33 3 0 16 19c37 40 82 60 134 60 53 0 97-20 134-60 41-43 62-96 62-159 0-63-21-116-62-160l-319-338-319 338c-41 44-62 97-62 160 0 63 21 116 62 159 37 40 82 60 135 60 53 0 98-20 135-60l16-17z" horiz-adv-x="1000" />

<glyph glyph-name="add-1" unicode="&#xe821;" d="M524 374l0 143c0 13-11 24-24 24-13 0-24-11-24-24l0-143-143 0c-13 0-23-11-23-24 0-13 10-24 23-24l143 0 0-143c0-13 11-23 24-23 13 0 24 10 24 23l0 143 143 0c13 0 24 11 24 24 0 13-11 24-24 24l-143 0z m-24-405c-210 0-381 171-381 381 0 210 171 381 381 381 210 0 381-171 381-381 0-210-171-381-381-381z" horiz-adv-x="1000" />

<glyph glyph-name="logout-1" unicode="&#xe822;" d="M420 198l108 110-409 0 0 84 411 0-110 110 59 60 212-212-212-212-59 60z m376 533c47 0 85-38 85-85l0-592c0-47-38-85-85-85l-592 0c-47 0-85 38-85 85l0 169 85 0 0-169 592 0 0 592-592 0 0-169-85 0 0 169c0 47 38 85 85 85l592 0z" horiz-adv-x="1000" />

<glyph glyph-name="checkbox" unicode="&#xe823;" d="M815 636l66-66-491-495c-10-9-21-14-33-14-12 0-23 5-33 14l-205 205 66 66 172-172 458 462z" horiz-adv-x="1000" />

<glyph glyph-name="download-1" unicode="&#xe824;" d="M648 643c0 15 12 28 28 28 15 0 28-13 28-28 0-16-13-29-28-29-16 0-28 13-28 29z m123-124c0 16 13 29 28 29 16 0 29-13 29-29 0-15-13-28-29-28-15 0-28 13-28 28z m75-200c-17 0-31 14-31 31 0 17 14 31 31 31 16 0 30-14 30-31 0-17-14-31-30-31z m-47-175c-20 0-36 16-36 37 0 20 16 36 36 36 20 0 37-16 37-36 0-21-17-37-37-37z m-159-88c0 20 16 36 36 36 20 0 36-16 36-36 0-21-16-37-36-37-20 0-36 16-36 37z m-172-48c0 22 18 40 40 40 23 0 41-18 41-40 0-23-18-41-41-41-22 0-40 18-40 41z m-127 7c-23 0-41 18-41 41 0 22 18 40 41 40 22 0 40-18 40-40 0-23-18-41-40-41z m-171 166c0 25 20 46 46 46 25 0 45-21 45-46 0-26-20-47-45-47-26 0-46 21-46 47z m-46 169c0 26 21 46 46 46 25 0 46-20 46-46 0-25-21-46-46-46-25 0-46 21-46 46z m39 169c0 30 23 54 53 54 29 0 52-24 52-54 0-29-23-53-52-53-30 0-53 24-53 53z m125 124c0 29 23 53 53 53 29 0 52-24 52-53 0-30-23-54-52-54-30 0-53 24-53 54z m163 47c0 32 26 58 57 58 32 0 58-26 58-58 0-32-26-58-58-58-31 0-57 26-57 58z" horiz-adv-x="1000" />

<glyph glyph-name="file" unicode="&#xe825;" d="M794 578l-137 137c-10 9-26 16-39 16l-290 0c-27 0-49-22-49-49l0-40-40 0c-27 0-48-22-48-49l0-575c0-27 21-49 48-49l434 0c26 0 48 22 48 49l0 40 40 0c27 0 49 22 49 49l0 431c0 14-7 30-16 40z m-144 98l105-105-89 0c-9 0-16 7-16 16l0 89z m39-658c0-9-8-16-16-16l-434 0c-9 0-16 7-16 16l0 575c0 9 7 17 16 17l40 0 0-503c0-27 22-49 49-49l361 0 0-40z m89 89c0-9-8-17-17-17l-433 0c-9 0-16 8-16 17l0 575c0 9 7 17 16 17l290 0 0-112c0-27 21-49 48-49l112 0 0-431z m-107 250l-252 0c-9 0-17-7-17-16 0-9 8-16 17-16l252 0c9 0 16 7 16 16 0 9-7 16-16 16z m0-106l-252 0c-9 0-17-8-17-17 0-9 8-16 17-16l252 0c9 0 16 7 16 16 0 9-7 17-16 17z m-269 197c0-9 8-16 17-16l252 0c9 0 16 7 16 16 0 9-7 16-16 16l-252 0c-9 0-17-7-17-16z m17 90l145 0c9 0 16 8 16 17 0 9-7 16-16 16l-145 0c-9 0-17-7-17-16 0-9 8-17 17-17z" horiz-adv-x="1000" />
</font>
</defs>
</svg>
